<svg id="visual" viewBox="0 0 1400 800" width="1400" height="800" xmlns="http://www.w3.org/2000/svg" xmlns:xlink="http://www.w3.org/1999/xlink" version="1.1"><g transform="translate(114.39074040325329 870.6708192431009)"><path d="M370.4 -669C501.5 -565.9 643.9 -509.9 602.6 -406.3C561.2 -302.7 336.1 -151.3 355.6 11.2C375.1 173.8 639.2 347.7 620.7 347.7C602.2 347.7 301.1 173.8 150.5 248.8C0 323.7 0 647.3 -74.7 776.7C-149.3 906 -298.7 841 -383.2 728C-467.8 615 -487.7 454 -481.3 324.7C-475 195.3 -442.5 97.7 -531.1 -51.2C-619.7 -200 -829.5 -400 -848.9 -552C-868.3 -704 -697.4 -807.9 -524.2 -886.8C-351 -965.6 -175.5 -1019.3 -27.9 -971C119.7 -922.6 239.3 -772.2 370.4 -669" fill="#e9f6ff"></path></g></svg>