<svg id="visual" viewBox="0 0 960 540" width="960" height="540" xmlns="http://www.w3.org/2000/svg" xmlns:xlink="http://www.w3.org/1999/xlink" version="1.1"><rect x="0" y="0" width="960" height="540" fill="#dde"></rect><defs><linearGradient id="grad1_0" x1="43.8%" y1="0%" x2="100%" y2="100%"><stop offset="14.444444444444446%" stop-color="#ddddee" stop-opacity="1"></stop><stop offset="85.55555555555554%" stop-color="#ddddee" stop-opacity="1"></stop></linearGradient></defs><defs><linearGradient id="grad2_0" x1="0%" y1="0%" x2="56.3%" y2="100%"><stop offset="14.444444444444446%" stop-color="#ddddee" stop-opacity="1"></stop><stop offset="85.55555555555554%" stop-color="#ddddee" stop-opacity="1"></stop></linearGradient></defs><g transform="translate(960, 0)"><path d="M0 270C-27.9 244.2 -55.7 218.4 -84.6 204.2C-113.4 189.9 -143.3 187.2 -173.2 173.2C-203.2 159.3 -233.3 134.1 -249.4 103.3C-265.6 72.6 -267.8 36.3 -270 0L0 0Z" fill="#0C78FE"></path></g><g transform="translate(0, 540)"><path d="M0 -270C35.2 -266.7 70.5 -263.4 103.3 -249.4C136.2 -235.5 166.6 -210.8 181 -181C195.4 -151.2 193.9 -116.4 206 -85.3C218.2 -54.3 244.1 -27.2 270 0L0 0Z" fill="#0C78FE"></path></g></svg>