<svg id="visual" viewBox="0 0 900 450" width="900" height="450" xmlns="http://www.w3.org/2000/svg" xmlns:xlink="http://www.w3.org/1999/xlink" version="1.1"><path d="M870 450L856.7 435C843.3 420 816.7 390 815.5 360C814.3 330 838.7 300 786.2 270C733.7 240 604.3 210 562.3 180C520.3 150 565.7 120 561.8 90C558 60 505 30 478.5 15L452 0L900 0L900 15C900 30 900 60 900 90C900 120 900 150 900 180C900 210 900 240 900 270C900 300 900 330 900 360C900 390 900 420 900 435L900 450Z" fill="#0c78fe"></path></svg>