<svg id="visual" viewBox="0 0 960 540" width="960" height="540" xmlns="http://www.w3.org/2000/svg" xmlns:xlink="http://www.w3.org/1999/xlink" version="1.1"><path d="M154 0L151.2 22.5C148.3 45 142.7 90 148.3 135C154 180 171 225 194.8 270C218.7 315 249.3 360 234 405C218.7 450 157.3 495 126.7 517.5L96 540L0 540L0 517.5C0 495 0 450 0 405C0 360 0 315 0 270C0 225 0 180 0 135C0 90 0 45 0 22.5L0 0Z" fill="#e4f6ff"></path><path d="M2 0L14.3 22.5C26.7 45 51.3 90 73.5 135C95.7 180 115.3 225 128.3 270C141.3 315 147.7 360 134.7 405C121.7 450 89.3 495 73.2 517.5L57 540L0 540L0 517.5C0 495 0 450 0 405C0 360 0 315 0 270C0 225 0 180 0 135C0 90 0 45 0 22.5L0 0Z" fill="#0c78fe"></path></svg>