<svg id="visual" viewBox="0 0 960 540" width="960" height="540" xmlns="http://www.w3.org/2000/svg" xmlns:xlink="http://www.w3.org/1999/xlink" version="1.1"><path d="M392 0L421.7 30C451.3 60 510.7 120 513.7 180C516.7 240 463.3 300 417.2 360C371 420 332 480 312.5 510L293 540L0 540L0 510C0 480 0 420 0 360C0 300 0 240 0 180C0 120 0 60 0 30L0 0Z" fill="#b8daf4"></path><path d="M279 0L303.5 30C328 60 377 120 395.2 180C413.3 240 400.7 300 351.3 360C302 420 216 480 173 510L130 540L0 540L0 510C0 480 0 420 0 360C0 300 0 240 0 180C0 120 0 60 0 30L0 0Z" fill="#0c78fe"></path></svg>