<svg id="visual" viewBox="0 0 900 900" width="900" height="900" xmlns="http://www.w3.org/2000/svg" xmlns:xlink="http://www.w3.org/1999/xlink" version="1.1"><path d="M383 0L376 37.5C369 75 355 150 369.3 225C383.7 300 426.3 375 486 450C545.7 525 622.3 600 583.8 675C545.3 750 391.7 825 314.8 862.5L238 900L0 900L0 862.5C0 825 0 750 0 675C0 600 0 525 0 450C0 375 0 300 0 225C0 150 0 75 0 37.5L0 0Z" fill="#c7e6ff"></path><path d="M2 0L32.8 37.5C63.7 75 125.3 150 180.8 225C236.3 300 285.7 375 318.3 450C351 525 367 600 334.8 675C302.7 750 222.3 825 182.2 862.5L142 900L0 900L0 862.5C0 825 0 750 0 675C0 600 0 525 0 450C0 375 0 300 0 225C0 150 0 75 0 37.5L0 0Z" fill="#0c78fe"></path></svg>