<svg id="visual" viewBox="0 0 900 450" width="900" height="450" xmlns="http://www.w3.org/2000/svg" xmlns:xlink="http://www.w3.org/1999/xlink" version="1.1"><path d="M236 0L245.8 18.8C255.7 37.7 275.3 75.3 293.2 112.8C311 150.3 327 187.7 347.7 225.2C368.3 262.7 393.7 300.3 382.3 337.8C371 375.3 323 412.7 299 431.3L275 450L0 450L0 431.3C0 412.7 0 375.3 0 337.8C0 300.3 0 262.7 0 225.2C0 187.7 0 150.3 0 112.8C0 75.3 0 37.7 0 18.8L0 0Z" fill="#4393f4"></path><path d="M121 0L146.5 18.8C172 37.7 223 75.3 232.8 112.8C242.7 150.3 211.3 187.7 178.8 225.2C146.3 262.7 112.7 300.3 90.5 337.8C68.3 375.3 57.7 412.7 52.3 431.3L47 450L0 450L0 431.3C0 412.7 0 375.3 0 337.8C0 300.3 0 262.7 0 225.2C0 187.7 0 150.3 0 112.8C0 75.3 0 37.7 0 18.8L0 0Z" fill="#0c78fe"></path></svg>