<svg id="visual" viewBox="0 0 960 540" width="960" height="540" xmlns="http://www.w3.org/2000/svg" xmlns:xlink="http://www.w3.org/1999/xlink" version="1.1"><path d="M256 0L251.3 22.5C246.7 45 237.3 90 246.8 135C256.3 180 284.7 225 324.3 270C364 315 415 360 389.3 405C363.7 450 261.3 495 210.2 517.5L159 540L0 540L0 517.5C0 495 0 450 0 405C0 360 0 315 0 270C0 225 0 180 0 135C0 90 0 45 0 22.5L0 0Z" fill="#dde9f3"></path><path d="M2 0L22.5 22.5C43 45 84 90 121 135C158 180 191 225 212.8 270C234.7 315 245.3 360 223.8 405C202.3 450 148.7 495 121.8 517.5L95 540L0 540L0 517.5C0 495 0 450 0 405C0 360 0 315 0 270C0 225 0 180 0 135C0 90 0 45 0 22.5L0 0Z" fill="#0c78fe"></path></svg>