<svg id="visual" viewBox="0 0 960 540" width="960" height="540" xmlns="http://www.w3.org/2000/svg" xmlns:xlink="http://www.w3.org/1999/xlink" version="1.1"><path d="M205 0L201.3 22.5C197.7 45 190.3 90 197.8 135C205.3 180 227.7 225 259.3 270C291 315 332 360 311.7 405C291.3 450 209.7 495 168.8 517.5L128 540L0 540L0 517.5C0 495 0 450 0 405C0 360 0 315 0 270C0 225 0 180 0 135C0 90 0 45 0 22.5L0 0Z" fill="#c7e6ff"></path><path d="M2 0L18.3 22.5C34.7 45 67.3 90 96.8 135C126.3 180 152.7 225 170.2 270C187.7 315 196.3 360 179.2 405C162 450 119 495 97.5 517.5L76 540L0 540L0 517.5C0 495 0 450 0 405C0 360 0 315 0 270C0 225 0 180 0 135C0 90 0 45 0 22.5L0 0Z" fill="#0c78fe"></path></svg>